<svg xmlns="http://www.w3.org/2000/svg" xmlns:xlink="http://www.w3.org/1999/xlink" width="1024" zoomAndPan="magnify" viewBox="0 0 768 767.999994" height="1024" preserveAspectRatio="xMidYMid meet" version="1.0"><defs><clipPath id="id1"><path d="M 162.832031 333 L 380 333 L 380 614 L 162.832031 614 Z M 162.832031 333 " clip-rule="nonzero"/></clipPath><clipPath id="id2"><path d="M 459.417969 353.5 L 605.242188 353.5 L 605.242188 529.675781 L 459.417969 529.675781 Z M 459.417969 353.5 " clip-rule="nonzero"/></clipPath><clipPath id="id3"><path d="M 470.273438 626.558594 L 581 626.558594 L 581 739.730469 L 470.273438 739.730469 Z M 470.273438 626.558594 " clip-rule="nonzero"/></clipPath></defs><g clip-path="url(#id1)"><path fill="#828442" d="M 162.945312 503.324219 C 163.03125 496.667969 164.070312 490.109375 164.960938 483.546875 C 166.601562 471.5 168.296875 459.464844 170.222656 447.464844 C 173.925781 424.417969 178.578125 401.597656 187.128906 379.75 C 189.367188 374.03125 191.910156 368.472656 194.980469 363.140625 C 201.015625 352.648438 209.949219 346.015625 221.539062 342.773438 C 229.316406 340.597656 237.285156 339.570312 245.265625 338.5625 C 254.039062 337.453125 262.8125 336.332031 271.585938 335.25 C 277.46875 334.519531 283.355469 333.839844 289.242188 333.140625 C 289.117188 334.320312 289.691406 335.285156 290.207031 336.261719 C 291.898438 339.457031 293.695312 342.597656 295.277344 345.84375 C 300.152344 355.875 304.914062 365.957031 309.789062 375.984375 C 312.914062 382.40625 316.316406 388.695312 319.320312 395.167969 C 322.15625 401.273438 325.097656 407.3125 328.367188 413.199219 C 329.878906 415.925781 331.527344 418.542969 333.386719 421.035156 C 335.140625 423.375 337.515625 424.167969 340.3125 423.667969 C 341.707031 423.417969 342.929688 422.664062 344.066406 421.8125 C 348.234375 418.695312 352.351562 415.503906 356.582031 412.476562 C 361.308594 409.089844 366.105469 405.808594 370.929688 402.570312 C 372.203125 401.71875 372.960938 400.117188 374.660156 399.75 C 375.628906 401.65625 374.460938 403.25 374.449219 404.910156 C 374.402344 411.828125 374.03125 418.757812 373.964844 425.660156 C 373.785156 444.847656 373.386719 464.054688 374.433594 483.234375 C 374.753906 489.140625 374.410156 495.046875 374.910156 500.980469 C 375.523438 508.253906 375.277344 515.609375 375.53125 522.933594 C 375.796875 530.546875 376.703125 538.152344 376.269531 545.792969 C 376.257812 545.996094 376.242188 546.207031 376.292969 546.394531 C 377.570312 551 376.550781 555.761719 377.347656 560.449219 C 378.007812 564.359375 377.863281 568.457031 377.910156 572.433594 C 378.003906 580.0625 378.957031 587.65625 378.6875 595.292969 C 378.628906 596.898438 378.40625 598.578125 378.757812 600.109375 C 379.753906 604.449219 378.777344 608.9375 379.910156 613.246094 C 376.464844 612.585938 373.019531 611.929688 369.574219 611.265625 C 361.6875 609.75 353.78125 608.371094 345.816406 607.328125 C 340.042969 606.566406 334.265625 605.894531 328.457031 605.421875 C 321.160156 604.832031 313.886719 603.933594 306.601562 603.1875 C 299.210938 602.433594 291.851562 601.476562 284.507812 600.367188 C 283.960938 597.820312 283.929688 597.648438 281.769531 597.726562 C 276.324219 597.917969 271.003906 596.691406 265.605469 596.34375 C 263.273438 596.191406 260.78125 596.230469 258.507812 595.285156 C 257.535156 593.527344 256.835938 591.695312 256.492188 589.675781 C 254.914062 580.296875 254.351562 570.8125 253.730469 561.351562 C 253.234375 553.769531 252.671875 546.167969 252.878906 538.554688 C 255.320312 538.035156 255.386719 538.035156 255.386719 535.730469 C 255.386719 528.816406 255.039062 521.902344 254.910156 514.996094 C 254.574219 497.109375 254.792969 479.210938 254.792969 461.320312 C 254.792969 460.515625 254.847656 459.703125 254.769531 458.90625 C 254.652344 457.636719 253.597656 456.601562 252.472656 456.546875 C 251.246094 456.484375 249.90625 457.601562 250.007812 459.011719 C 250.285156 462.945312 249.292969 466.78125 249.320312 470.699219 C 249.480469 492.089844 249 513.480469 249.964844 534.863281 C 245.945312 533.621094 241.902344 532.441406 237.90625 531.132812 C 219.222656 525.007812 200.554688 518.835938 181.875 512.691406 C 177.519531 511.253906 173.152344 509.855469 168.96875 508.5 C 165.800781 507.285156 162.894531 507.449219 162.945312 503.324219 " fill-opacity="1" fill-rule="nonzero"/></g><path fill="#fab685" d="M 583.585938 515.261719 C 583.589844 517.605469 584.363281 519.816406 585.003906 522.007812 C 586.871094 528.328125 587.1875 534.835938 587.804688 541.320312 C 588.273438 546.203125 588.863281 551.078125 589.417969 555.953125 C 589.699219 558.441406 589.785156 560.949219 590.050781 563.449219 C 590.546875 568.03125 590.566406 572.664062 590.84375 577.273438 C 591.519531 588.398438 591.652344 599.546875 592.191406 610.675781 C 592.835938 624.050781 592.660156 637.414062 592.441406 650.773438 C 592.351562 656.140625 591.746094 661.542969 590.480469 666.863281 C 588.988281 673.128906 585.894531 678.398438 581.734375 683.136719 C 579.417969 685.773438 577.292969 688.609375 574.347656 690.632812 C 573.851562 690.972656 573.425781 691.414062 572.785156 691.480469 C 572.113281 688.785156 571.363281 688.332031 568.808594 689.402344 C 564.269531 691.300781 559.773438 693.328125 555.242188 695.261719 C 552.007812 696.640625 548.714844 697.886719 545.507812 699.324219 C 541.988281 700.894531 538.398438 700.085938 534.820312 699.851562 C 530.191406 699.539062 525.585938 698.914062 521.324219 697.046875 C 517.273438 695.273438 513.339844 693.207031 509.441406 691.117188 C 504.742188 688.59375 501.070312 684.949219 498.25 680.417969 C 495.648438 676.238281 492.933594 672.128906 490.351562 667.9375 C 485.804688 660.558594 482 652.816406 478.972656 644.683594 C 477.148438 639.785156 475.761719 634.753906 474.210938 629.765625 C 473.800781 628.449219 473.621094 626.925781 471.824219 626.65625 C 470.65625 621.777344 469.480469 616.898438 468.316406 612.019531 C 465.199219 598.941406 462.152344 585.851562 459.667969 572.632812 C 456.257812 554.496094 452.769531 536.363281 448.507812 518.410156 C 441.738281 489.90625 434.257812 461.566406 427.472656 433.058594 C 426.460938 428.804688 425.3125 424.488281 422.910156 420.695312 C 422.632812 418.804688 421.5 417.347656 420.453125 415.84375 C 419.566406 413.757812 418.121094 412.175781 416.226562 410.933594 C 414.558594 409.835938 412.878906 408.714844 411.355469 407.425781 C 405.015625 402.050781 400.222656 395.6875 398.554688 387.304688 C 397.570312 382.367188 397.265625 377.394531 397.335938 372.378906 C 398.914062 372.230469 399.234375 371.183594 399.238281 369.828125 C 399.238281 367.109375 399.019531 364.351562 399.402344 361.6875 C 399.957031 357.824219 399.683594 353.933594 400.28125 350.011719 C 401.730469 348.910156 403.277344 347.789062 404.757812 346.589844 C 406.769531 344.960938 409.179688 344.351562 411.5625 344.757812 C 416.652344 345.621094 421.828125 344.601562 426.886719 345.730469 C 428.027344 345.992188 429.207031 345.648438 429.347656 344.1875 C 429.484375 342.773438 428.558594 342.320312 427.285156 342.167969 C 422.199219 341.566406 417.101562 341.242188 411.992188 340.917969 C 407.4375 340.632812 403.75 342.070312 400.394531 344.9375 C 398.25 346.769531 395.929688 348.40625 393.265625 349.398438 C 390.230469 350.527344 387.191406 350.757812 384.402344 348.65625 C 382.652344 347.332031 382.554688 346.769531 383.96875 345.003906 C 387.550781 340.527344 391.507812 336.378906 395.457031 332.230469 C 396.96875 330.644531 398.582031 330.019531 400.761719 329.972656 C 408.863281 329.796875 416.753906 331.207031 424.636719 332.785156 C 426.699219 333.195312 428.789062 333.464844 430.871094 333.738281 C 431.726562 333.847656 432.519531 333.550781 432.847656 332.679688 C 433.238281 331.636719 432.59375 330.933594 431.804688 330.417969 C 431.042969 329.921875 430.183594 329.664062 429.269531 329.511719 C 426.203125 329.007812 423.148438 328.4375 420.089844 327.886719 C 413.664062 326.730469 407.222656 325.703125 400.660156 325.867188 C 397.628906 325.945312 394.835938 326.769531 392.855469 329.160156 C 389.703125 332.953125 385.863281 336.113281 382.902344 340.074219 C 381.777344 341.582031 380.121094 341.960938 378.402344 342.167969 C 374.449219 342.640625 370.8125 341.722656 367.464844 339.59375 C 364.828125 337.921875 364.71875 337.222656 366.835938 335.023438 C 369.066406 332.699219 371.382812 330.460938 373.542969 328.070312 C 378.199219 322.925781 382.734375 317.675781 387.78125 312.90625 C 389.152344 311.609375 390.671875 310.277344 392.695312 310.15625 C 395.308594 310.003906 397.957031 309.867188 400.535156 310.332031 C 409.230469 311.898438 417.785156 314.09375 426.308594 316.414062 C 429.015625 317.152344 431.765625 317.734375 434.5 318.378906 C 435.714844 318.664062 436.804688 318.394531 437.183594 317.132812 C 437.570312 315.847656 436.703125 315.058594 435.609375 314.574219 C 435.253906 314.414062 434.828125 314.40625 434.4375 314.316406 C 433.066406 314.007812 431.691406 313.714844 430.335938 313.367188 C 420.226562 310.78125 410.1875 307.910156 399.859375 306.246094 C 393.835938 305.273438 388.589844 306.152344 384.171875 310.894531 C 379.921875 315.449219 375.457031 319.820312 371.347656 324.507812 C 369.894531 326.171875 368.296875 326.296875 366.480469 325.496094 C 365.472656 325.054688 364.523438 324.46875 363.597656 323.867188 C 359.054688 320.925781 360.234375 320.398438 362.679688 317.445312 C 367.117188 312.101562 372.125 307.273438 377.082031 302.414062 C 379.765625 299.78125 382.875 298.15625 386.84375 298.632812 C 388.140625 298.785156 389.417969 299.011719 390.703125 299.214844 C 400.226562 300.710938 409.710938 302.367188 418.867188 305.496094 C 419.636719 305.761719 420.390625 306.046875 421.210938 305.925781 C 422.691406 305.707031 423.304688 304.132812 422.382812 302.960938 C 421.925781 302.375 421.25 302.109375 420.589844 301.890625 C 418.492188 301.191406 416.40625 300.441406 414.265625 299.902344 C 405.992188 297.828125 397.640625 296.179688 389.199219 294.914062 C 385.347656 294.335938 381.78125 294.355469 378.441406 296.410156 C 376.480469 297.617188 374.519531 297.746094 372.378906 297.101562 C 371.132812 296.722656 369.832031 296.53125 368.566406 296.210938 C 362.980469 294.804688 357.550781 293 352.78125 289.65625 C 349.011719 287.011719 346.40625 283.628906 346.3125 278.820312 C 347.53125 277.652344 348.917969 277.46875 350.347656 277.605469 C 354.339844 278 358.339844 278.347656 362.3125 278.890625 C 367.972656 279.664062 373.589844 280.714844 379.222656 281.660156 C 392.578125 283.910156 405.902344 286.277344 419.011719 289.714844 C 423.382812 290.863281 427.734375 292.082031 432.050781 293.429688 C 437.363281 295.085938 440.757812 299.101562 443.5625 303.589844 C 446.921875 308.953125 450.488281 314.214844 453.078125 320.019531 C 453.90625 321.867188 455.066406 322.726562 457.089844 322.15625 C 458.441406 329.636719 458.816406 337.199219 459.125 344.773438 C 459.246094 347.765625 459.78125 350.726562 459.722656 353.730469 C 460.164062 357.410156 460.488281 361.109375 461.070312 364.773438 C 463.21875 378.214844 467.601562 391.046875 471.917969 403.890625 C 473.582031 408.847656 475.59375 413.660156 478.015625 418.316406 C 483.355469 428.570312 488.496094 438.929688 493.875 449.164062 C 502.007812 464.644531 510.328125 480.027344 518.464844 495.511719 C 522.996094 504.136719 527.316406 512.878906 531.726562 521.570312 C 530.941406 522.640625 530.992188 523.710938 531.402344 524.972656 C 537.203125 542.703125 542.59375 560.554688 547.832031 578.460938 C 550.164062 586.445312 552.429688 594.445312 554.089844 602.601562 C 554.648438 605.339844 555.046875 608.144531 556.210938 610.730469 C 556.734375 611.898438 557.597656 612.527344 558.851562 612.035156 C 560.003906 611.582031 560.046875 610.570312 559.792969 609.492188 C 558.898438 605.691406 558.066406 601.882812 557.136719 598.089844 C 552.050781 577.332031 545.722656 556.9375 539.117188 536.625 C 538.34375 534.253906 537.25 531.960938 536.996094 529.433594 C 538.835938 529.613281 540.574219 529.125 542.277344 528.535156 C 552.679688 524.964844 563.074219 521.339844 573.484375 517.789062 C 576.773438 516.667969 580.121094 515.707031 583.585938 515.261719 " fill-opacity="1" fill-rule="nonzero"/><path fill="#fab685" d="M 284.507812 600.367188 C 291.851562 601.476562 299.210938 602.433594 306.601562 603.1875 C 313.886719 603.933594 321.160156 604.832031 328.457031 605.421875 C 334.265625 605.894531 340.042969 606.566406 345.816406 607.328125 C 353.78125 608.371094 361.6875 609.75 369.574219 611.265625 C 373.019531 611.929688 376.464844 612.585938 379.910156 613.246094 C 381.671875 613.800781 383.472656 614.148438 385.3125 614.300781 C 386.363281 614.613281 387.40625 614.976562 388.472656 615.230469 C 399.21875 617.792969 410.027344 620.089844 420.964844 621.667969 C 426.519531 622.46875 432.035156 623.644531 437.703125 623.648438 C 446.300781 623.660156 454.421875 625.652344 461.949219 629.910156 C 465.175781 631.734375 468.46875 633.445312 471.730469 635.207031 L 471.710938 635.167969 C 471.785156 635.488281 472.007812 635.660156 472.316406 635.734375 C 472.734375 637.179688 473.132812 638.632812 473.574219 640.070312 C 475.960938 647.757812 478.917969 655.210938 482.800781 662.285156 C 486.335938 668.71875 490.28125 674.910156 494.191406 681.109375 C 497.21875 685.90625 500.804688 690.210938 505.742188 693.210938 C 510.304688 695.984375 515.0625 698.367188 519.929688 700.53125 C 521.074219 701.039062 521.972656 701.695312 522.734375 702.664062 C 525.757812 706.546875 528.804688 710.40625 531.878906 714.242188 C 535.898438 719.261719 540.253906 723.992188 544.492188 728.820312 C 545.695312 730.191406 547.230469 731.429688 547.863281 733.40625 C 546.085938 734.480469 544.359375 734.902344 542.359375 734.585938 C 538.910156 734.042969 535.824219 732.722656 532.957031 730.761719 C 529.972656 728.714844 526.914062 726.78125 523.941406 724.726562 C 520.640625 722.4375 517.300781 720.144531 514.515625 717.261719 C 513.328125 716.035156 512.316406 715.347656 510.6875 715.550781 C 509.449219 715.175781 508.785156 714.097656 507.9375 713.265625 C 502.636719 708.046875 497.613281 702.535156 491.53125 698.15625 C 488.074219 695.660156 484.460938 693.433594 480.21875 692.726562 C 476.535156 692.113281 472.742188 692.269531 469.074219 692.742188 C 463.039062 693.527344 457.273438 692.574219 451.554688 690.921875 C 448.855469 690.140625 446.191406 689.203125 443.585938 688.148438 C 438.796875 686.210938 433.898438 685.769531 428.839844 686.664062 C 423.199219 687.664062 417.515625 688.152344 411.785156 688.363281 C 402.851562 688.6875 393.917969 689.039062 385 689.648438 C 375.894531 690.269531 366.804688 691.140625 357.722656 692.050781 C 351.742188 692.648438 345.792969 693.566406 339.8125 694.230469 C 335.027344 694.765625 330.222656 695.101562 325.433594 695.59375 C 320.746094 696.074219 316.066406 696.640625 311.386719 697.171875 C 305.308594 697.863281 299.222656 698.484375 293.15625 699.265625 C 285.433594 700.265625 277.683594 699.945312 269.953125 699.742188 C 264.546875 699.597656 259.164062 698.890625 253.785156 698.226562 C 250.003906 697.757812 246.214844 697.355469 242.433594 696.871094 C 234.269531 695.828125 226.148438 694.546875 218.09375 692.886719 C 213.769531 692.003906 209.449219 691.105469 205.191406 689.886719 C 199.128906 688.160156 194.3125 684.546875 190.539062 679.746094 C 180 666.339844 172.894531 651.265625 169.738281 634.457031 C 168.929688 630.128906 168.550781 625.726562 168.269531 621.308594 C 167.136719 603.410156 167.714844 585.5 167.992188 567.609375 C 168.152344 557.359375 168.257812 547.101562 168.25 536.851562 C 168.246094 530.023438 167.660156 523.195312 167.789062 516.359375 C 167.808594 515.417969 167.355469 510.09375 168.96875 508.5 C 173.152344 509.855469 177.519531 511.253906 181.875 512.691406 C 200.554688 518.835938 219.222656 525.007812 237.90625 531.132812 C 241.902344 532.441406 245.945312 533.621094 249.964844 534.863281 C 250.753906 535.222656 251.546875 535.589844 252.230469 535.902344 C 252.738281 536.8125 252.257812 537.8125 252.878906 538.554688 C 252.671875 546.167969 253.234375 553.769531 253.730469 561.351562 C 254.351562 570.8125 254.914062 580.296875 256.492188 589.675781 C 256.835938 591.695312 257.535156 593.527344 258.507812 595.285156 C 253.054688 594.597656 247.605469 593.90625 242.152344 593.226562 C 236.5 592.515625 230.847656 591.800781 225.191406 591.128906 C 224.511719 591.050781 223.78125 591.140625 223.117188 591.316406 C 222.496094 591.484375 222.191406 592.046875 222.171875 592.710938 C 222.148438 593.382812 222.425781 593.867188 223.085938 594.085938 C 223.566406 594.246094 224.039062 594.511719 224.523438 594.527344 C 228.039062 594.644531 231.445312 595.53125 234.925781 595.90625 C 239 596.351562 243.054688 596.933594 247.117188 597.46875 C 252.269531 598.148438 257.414062 598.871094 262.570312 599.523438 C 267.226562 600.113281 271.886719 600.742188 276.5625 601.152344 C 279.222656 601.386719 281.984375 601.851562 284.507812 600.367188 " fill-opacity="1" fill-rule="nonzero"/><path fill="#fab583" d="M 325.144531 159.167969 C 326.128906 162.222656 326.257812 164.84375 325.699219 167.59375 C 325.324219 169.457031 325.011719 171.332031 324.542969 173.179688 C 324.300781 174.128906 324.847656 174.75 325.613281 175.109375 C 326.582031 175.566406 327.117188 174.828125 327.535156 174.144531 C 327.785156 173.730469 327.800781 173.191406 327.972656 172.722656 C 329.445312 168.753906 329.207031 164.621094 329.125 160.503906 C 329.066406 157.621094 328.226562 154.941406 326.683594 152.542969 C 324.96875 149.871094 322.601562 148.128906 319.234375 148.210938 C 318.136719 148.230469 316.832031 148.054688 316.5625 149.523438 C 316.277344 151.0625 317.582031 151.234375 318.652344 151.519531 C 319.039062 151.621094 319.425781 151.746094 319.820312 151.820312 C 321.992188 152.226562 323.128906 153.75 324.230469 155.683594 C 322.878906 156.28125 321.660156 155.960938 320.507812 156.121094 C 319.476562 156.261719 318.832031 156.792969 318.871094 157.898438 C 318.914062 158.976562 319.695312 159.15625 320.558594 159.164062 C 322.050781 159.175781 323.542969 159.167969 325.144531 159.167969 Z M 510.261719 224.632812 C 512.78125 221.367188 515.613281 220.164062 519.214844 220.992188 C 519.996094 221.171875 520.742188 221.484375 521.503906 221.742188 C 522.554688 222.09375 523.589844 222.105469 524.085938 220.964844 C 524.589844 219.800781 523.714844 219.09375 522.851562 218.53125 C 522.351562 218.210938 521.785156 217.964844 521.214844 217.785156 C 515.65625 216.035156 511.09375 217.632812 507.472656 222.441406 C 505.769531 224.699219 504.570312 227.261719 503.539062 229.875 C 502.808594 231.722656 502.230469 233.683594 502.640625 235.742188 C 502.820312 236.644531 503.429688 237.113281 504.367188 237.066406 C 505.246094 237.027344 505.609375 236.464844 505.589844 235.667969 C 505.539062 233.691406 506.371094 231.945312 507.011719 230.167969 C 507.765625 228.066406 508.21875 227.839844 510.382812 228.316406 C 511.679688 228.605469 512.972656 228.578125 514.269531 228.636719 C 515.261719 228.675781 516.519531 228.84375 516.761719 227.5625 C 517.015625 226.214844 516.027344 225.667969 514.769531 225.484375 C 513.410156 225.292969 512.070312 224.980469 510.261719 224.632812 Z M 423.089844 258.730469 C 425.171875 258.730469 426.890625 258.828125 428.589844 258.703125 C 429.902344 258.601562 430.882812 257.777344 431.046875 256.425781 C 431.226562 254.953125 430.183594 254.300781 428.941406 253.914062 C 428.074219 253.640625 427.195312 253.503906 426.28125 253.4375 C 422.640625 253.191406 419.035156 253.714844 415.484375 254.226562 C 408.097656 255.289062 401.058594 257.757812 394.074219 260.304688 C 392.007812 261.0625 390 262.050781 388.472656 263.761719 C 387.632812 264.703125 387.40625 265.675781 388.167969 266.753906 C 388.996094 267.925781 390.027344 267.761719 391.078125 267.128906 C 395.519531 264.441406 400.460938 263.074219 405.402344 261.683594 C 411.3125 260.019531 417.289062 258.789062 423.089844 258.730469 Z M 461.285156 174.082031 C 464.003906 173.886719 467.085938 173.449219 470.152344 172.84375 C 476.625 171.566406 483.128906 171.328125 489.65625 172.417969 C 490.050781 172.480469 490.449219 172.5625 490.847656 172.601562 C 492.210938 172.71875 493.234375 172.230469 493.640625 170.859375 C 494.019531 169.582031 493.300781 168.484375 491.707031 167.925781 C 491.050781 167.699219 490.34375 167.582031 489.648438 167.480469 C 483.015625 166.492188 476.410156 166.699219 469.835938 167.949219 C 466.96875 168.496094 464.121094 169.171875 461.207031 169.359375 C 457.476562 169.597656 455.808594 168.199219 455.289062 164.488281 C 455.152344 163.496094 455.199219 162.476562 455.046875 161.488281 C 454.855469 160.253906 454.125 159.4375 452.8125 159.484375 C 451.648438 159.523438 451.070312 160.324219 450.8125 161.410156 C 449.234375 168.074219 454.113281 174.222656 461.285156 174.082031 Z M 382.1875 142.726562 C 380.484375 142.765625 379.097656 142.25 377.691406 142.546875 C 376.511719 142.796875 375.652344 143.445312 375.59375 144.753906 C 375.535156 146.042969 376.21875 146.902344 377.441406 147.132812 C 378.816406 147.398438 380.226562 147.554688 381.625 147.601562 C 385.277344 147.714844 388.773438 148.480469 392.230469 149.640625 C 396.664062 151.121094 400.648438 153.40625 404.476562 156.015625 C 406.644531 157.492188 408.859375 158.875 411.503906 159.34375 C 416.144531 160.179688 421.03125 156.648438 421.679688 152.011719 C 421.835938 150.878906 421.511719 149.988281 420.453125 149.53125 C 419.375 149.070312 418.46875 149.488281 417.847656 150.421875 C 417.40625 151.085938 417.109375 151.847656 416.699219 152.539062 C 415.320312 154.847656 413.601562 155.414062 411.085938 154.421875 C 409.289062 153.710938 407.769531 152.558594 406.210938 151.453125 C 398.914062 146.292969 390.898438 143.136719 382.1875 142.726562 Z M 414.976562 199.207031 C 414.976562 197.820312 415.148438 196.515625 413.570312 196.085938 C 412.355469 195.753906 411.375 196.472656 410.710938 198.144531 C 410.527344 198.605469 410.355469 199.082031 410.222656 199.5625 C 409.246094 203.101562 407.488281 206.195312 405.246094 209.109375 C 402.550781 212.609375 399.675781 215.945312 396.765625 219.257812 C 393.351562 223.140625 393.121094 227.613281 396.417969 230.804688 C 399.984375 234.253906 404.371094 236.15625 409.238281 236.976562 C 409.933594 237.09375 410.632812 237.027344 411.308594 236.730469 C 412.324219 236.277344 412.933594 235.5 412.980469 234.417969 C 413.023438 233.398438 412.308594 232.734375 411.441406 232.382812 C 410.613281 232.042969 409.722656 231.800781 408.832031 231.6875 C 405.835938 231.3125 403.296875 229.929688 400.96875 228.128906 C 398.828125 226.476562 398.71875 225.28125 400.160156 222.996094 C 400.703125 222.132812 401.371094 221.402344 402.0625 220.671875 C 405.960938 216.585938 409.273438 212.042969 412.203125 207.242188 C 413.71875 204.761719 414.558594 201.9375 414.976562 199.207031 Z M 360.609375 220.765625 C 363.144531 220.949219 365.550781 220.601562 367.722656 219.019531 C 370.777344 216.804688 371.214844 213.261719 368.695312 210.417969 C 367.3125 208.855469 365.546875 207.957031 363.589844 207.375 C 360.519531 206.464844 357.429688 205.734375 354.222656 205.347656 C 352.1875 205.097656 350.402344 205.460938 348.703125 206.203125 C 345.570312 207.578125 344.640625 210.652344 346.148438 213.75 C 346.820312 215.140625 347.777344 216.242188 349.046875 217.136719 C 352.511719 219.574219 356.257812 221.078125 360.609375 220.765625 Z M 464.398438 245.519531 C 465.785156 245.746094 467.386719 245.148438 468.96875 244.480469 C 470.367188 243.886719 471.304688 242.800781 471.609375 241.375 C 472.25 238.410156 471.527344 235.753906 469.167969 233.753906 C 465.890625 230.980469 462.042969 229.238281 457.933594 228.164062 C 455.125 227.425781 452.300781 226.917969 449.53125 228.761719 C 447.261719 230.265625 446.628906 231.359375 447.441406 233.972656 C 449.324219 240.007812 457.144531 245.453125 464.398438 245.519531 Z M 376.5 168.160156 C 376.289062 169.351562 375.417969 169.808594 374.839844 170.472656 C 371.433594 174.414062 369.054688 178.914062 367.597656 183.894531 C 366.769531 186.734375 366.601562 189.625 367.164062 192.550781 C 368.617188 200.140625 375.789062 203.25 382.320312 199.101562 C 384.652344 197.621094 386.515625 195.671875 387.980469 193.335938 C 392.390625 186.3125 393.273438 178.707031 391.613281 170.71875 C 391.125 168.351562 389.75 166.507812 387.722656 165.183594 C 383.785156 162.621094 379.519531 162.050781 375.007812 163.183594 C 372.71875 163.753906 370.738281 164.957031 368.996094 166.511719 C 367.613281 167.75 367.40625 169.144531 368.304688 170.203125 C 369.15625 171.207031 370.339844 171.253906 371.816406 170.3125 C 372.40625 169.9375 372.929688 169.449219 373.535156 169.09375 C 374.371094 168.601562 375.167969 167.917969 376.5 168.160156 Z M 461.179688 188.941406 C 462.824219 189.414062 463.902344 190.574219 464.804688 191.941406 C 465.191406 192.527344 465.507812 193.175781 465.953125 193.710938 C 466.882812 194.835938 468.148438 195.128906 469.144531 194.453125 C 470.207031 193.738281 470.492188 192.683594 470.007812 191.542969 C 468.835938 188.789062 467.003906 186.59375 464.386719 185.050781 C 457.128906 180.757812 448.652344 181.855469 443.90625 187.882812 C 441.855469 190.484375 440.070312 193.3125 438.738281 196.359375 C 436.824219 200.738281 436.328125 205.277344 437.96875 209.875 C 440.597656 217.25 447.660156 219.324219 453.953125 214.613281 C 456.171875 212.953125 457.8125 210.8125 459.019531 208.335938 C 461.96875 202.292969 462.535156 196.039062 460.625 189.582031 C 460.808594 189.367188 460.992188 189.152344 461.179688 188.941406 Z M 529.175781 206.558594 C 534.070312 209.273438 535.316406 213.738281 534.152344 218.910156 C 533.085938 223.660156 530.640625 227.65625 527.742188 231.417969 C 524.851562 235.171875 521.476562 238.492188 518.121094 241.828125 C 516.246094 243.695312 514.109375 245.179688 511.886719 246.558594 C 508.164062 248.851562 504.128906 249.125 499.953125 248.179688 C 498.792969 247.914062 497.644531 247.59375 496.335938 247.261719 C 493.832031 251.582031 491.410156 255.855469 488.894531 260.078125 C 483.472656 269.171875 477.394531 277.757812 469.828125 285.253906 C 464.558594 290.46875 458.417969 294.445312 452.105469 298.210938 C 450.382812 299.238281 448.574219 300.128906 446.808594 301.082031 C 446.230469 300.792969 445.988281 300.230469 445.652344 299.726562 C 442.058594 294.359375 437.328125 290.683594 430.949219 288.953125 C 423.394531 286.914062 415.839844 284.90625 408.238281 283.054688 C 398.492188 280.671875 388.523438 279.511719 378.703125 277.539062 C 372.511719 276.300781 366.269531 275.394531 360.003906 274.691406 C 356.019531 274.242188 352.035156 273.628906 347.996094 273.90625 C 344.019531 274.179688 342.382812 275.925781 342.398438 279.828125 C 342.40625 281.699219 343 283.371094 343.726562 285.039062 C 344.125 285.953125 344.796875 286.75 344.871094 287.804688 C 342.816406 287.015625 341.859375 285.089844 341.339844 283.34375 C 340.515625 280.550781 338.824219 278.433594 337.113281 276.269531 C 336.070312 274.953125 334.773438 273.847656 333.886719 272.382812 C 333.570312 271.867188 333.035156 271.558594 332.375 271.585938 C 330.292969 266.042969 328.253906 260.480469 326.496094 254.828125 C 324.082031 247.054688 322.308594 239.152344 321.175781 231.082031 C 320.492188 226.210938 320.160156 221.316406 319.597656 216.441406 C 319.042969 211.625 319.898438 206.832031 320.386719 202.039062 C 320.652344 199.375 321 196.714844 321.335938 193.882812 C 318.910156 193.457031 316.878906 192.707031 314.894531 191.753906 C 308.71875 188.792969 305.546875 183.664062 304.515625 177.15625 C 303.128906 168.457031 303.089844 159.742188 305.613281 151.203125 C 306.875 146.9375 308.585938 142.875 312.507812 140.199219 C 314.953125 138.53125 317.554688 137.8125 320.480469 138.316406 C 324.867188 140.09375 327.558594 143.488281 329.359375 147.703125 C 329.859375 148.867188 330.496094 149.824219 331.835938 150.113281 C 332.890625 149.265625 332.597656 147.628906 333.804688 146.710938 C 334.414062 146.800781 335.097656 146.898438 335.78125 147.003906 C 340.570312 147.78125 344.480469 146.203125 347.648438 142.597656 C 349.585938 140.394531 351.277344 138.019531 352.558594 135.386719 C 354.273438 131.859375 355.910156 128.296875 357.570312 124.746094 C 358.851562 122.007812 360.226562 119.320312 362.089844 116.921875 C 368.472656 108.722656 376.816406 105.5 387.09375 106.996094 C 391.042969 107.570312 394.605469 109.1875 398.238281 110.640625 C 399.339844 111.078125 400.242188 111.164062 401.375 110.722656 C 406.871094 108.582031 412.601562 108.398438 418.324219 109.328125 C 427.121094 110.757812 434.675781 114.753906 441.023438 121.015625 C 445.398438 125.324219 449.761719 129.625 454.785156 133.214844 C 464.753906 140.324219 475.570312 145.878906 486.828125 150.558594 C 499.304688 155.742188 512.003906 160.191406 525.78125 160.167969 C 527.316406 161.839844 527.683594 163.765625 527.566406 166 C 527.246094 171.949219 525.929688 177.75 525.191406 183.628906 C 524.953125 185.542969 524.308594 187.335938 523.554688 189.101562 C 521.160156 194.746094 518.769531 200.394531 516.40625 206.054688 C 516.125 206.71875 515.382812 207.402344 516.292969 208.316406 C 520.398438 206.65625 524.652344 205.539062 529.175781 206.558594 " fill-opacity="1" fill-rule="nonzero"/><path fill="#261916" d="M 529.175781 206.558594 C 524.652344 205.539062 520.398438 206.65625 516.292969 208.316406 C 515.382812 207.402344 516.125 206.71875 516.40625 206.054688 C 518.769531 200.394531 521.160156 194.746094 523.554688 189.101562 C 524.308594 187.335938 524.953125 185.542969 525.191406 183.628906 C 525.929688 177.75 527.246094 171.949219 527.566406 166 C 527.683594 163.765625 527.316406 161.839844 525.78125 160.167969 C 512.003906 160.191406 499.304688 155.742188 486.828125 150.558594 C 475.570312 145.878906 464.753906 140.324219 454.785156 133.214844 C 449.761719 129.625 445.398438 125.324219 441.023438 121.015625 C 434.675781 114.753906 427.121094 110.757812 418.324219 109.328125 C 412.601562 108.398438 406.871094 108.582031 401.375 110.722656 C 400.242188 111.164062 399.339844 111.078125 398.238281 110.640625 C 394.605469 109.1875 391.042969 107.570312 387.09375 106.996094 C 376.816406 105.5 368.472656 108.722656 362.089844 116.921875 C 360.226562 119.320312 358.851562 122.007812 357.570312 124.746094 C 355.910156 128.296875 354.273438 131.859375 352.558594 135.386719 C 351.277344 138.019531 349.585938 140.394531 347.648438 142.597656 C 344.480469 146.203125 340.570312 147.78125 335.78125 147.003906 C 335.097656 146.898438 334.414062 146.800781 333.804688 146.710938 C 332.597656 147.628906 332.890625 149.265625 331.835938 150.113281 C 330.496094 149.824219 329.859375 148.867188 329.359375 147.703125 C 327.558594 143.488281 324.867188 140.09375 320.480469 138.316406 C 320.648438 130.269531 320.351562 122.214844 321.265625 114.183594 C 323.816406 91.648438 332.109375 71.796875 348.632812 55.851562 C 356.042969 48.699219 364.558594 43.25 374.515625 40.253906 C 375.960938 39.820312 377.441406 39.171875 378.527344 40.800781 C 397.210938 30.972656 417.371094 29.046875 437.808594 28.492188 C 455.972656 27.992188 473.457031 31.675781 490.480469 37.621094 C 502.203125 41.710938 512.542969 48.316406 521.890625 56.460938 C 524.320312 58.578125 526.675781 60.785156 529.179688 62.808594 C 541.121094 72.460938 554.878906 78.082031 569.867188 80.859375 C 574.03125 81.628906 578.273438 81.734375 582.511719 81.476562 C 585.023438 81.320312 587.539062 81.242188 590.058594 81.179688 C 591.363281 81.148438 592.667969 81.277344 593.9375 81.667969 C 596.785156 82.546875 597.867188 84.140625 597.464844 87.101562 C 597.097656 89.757812 595.800781 92.054688 594.386719 94.257812 C 589.964844 101.128906 585.019531 107.601562 579.5625 113.683594 C 578.753906 114.582031 577.925781 115.464844 577.089844 116.332031 C 570.945312 122.710938 564.15625 128.144531 555.789062 130.875 C 555.128906 131.667969 555.296875 132.402344 555.285156 133.085938 C 555.21875 136.328125 554.804688 139.535156 553.878906 142.625 C 550.757812 153.027344 548.28125 163.621094 544.796875 173.917969 C 543.347656 178.214844 541.617188 182.394531 539.53125 186.425781 C 536.066406 193.128906 532.625 199.847656 529.175781 206.558594 " fill-opacity="1" fill-rule="nonzero"/><g clip-path="url(#id2)"><path fill="#828442" d="M 583.585938 515.261719 C 580.121094 515.707031 576.773438 516.667969 573.484375 517.789062 C 563.074219 521.339844 552.679688 524.964844 542.277344 528.535156 C 540.574219 529.125 538.835938 529.613281 536.996094 529.433594 C 536.097656 527.871094 535.636719 526.140625 535.046875 524.453125 C 534.5 522.898438 533.726562 521.5 531.726562 521.570312 C 527.316406 512.878906 522.996094 504.136719 518.464844 495.511719 C 510.328125 480.027344 502.007812 464.644531 493.875 449.164062 C 488.496094 438.929688 483.355469 428.570312 478.015625 418.316406 C 475.59375 413.660156 473.582031 408.847656 471.917969 403.890625 C 467.601562 391.046875 463.21875 378.214844 461.070312 364.773438 C 460.488281 361.109375 460.164062 357.410156 459.722656 353.730469 C 469.445312 358.5 479.667969 361.707031 490.324219 363.589844 C 496.480469 364.679688 502.6875 365.238281 508.914062 365.613281 C 517.851562 366.152344 526.792969 366.625 535.703125 367.566406 C 544.84375 368.527344 553.160156 371.386719 559.972656 377.851562 C 564.117188 381.78125 567.324219 386.359375 569.757812 391.511719 C 575.007812 402.632812 579.324219 414.101562 582.703125 425.925781 C 589.445312 449.515625 596.0625 473.140625 603.140625 496.625 C 604.070312 499.703125 604.765625 502.835938 605.242188 506.378906 C 598.101562 509.503906 590.855469 512.40625 583.585938 515.261719 " fill-opacity="1" fill-rule="nonzero"/></g><path fill="#828442" d="M 293.464844 332.539062 C 297.117188 331.945312 300.765625 331.34375 304.417969 330.753906 C 306 330.5 307.582031 330.257812 309.164062 330.015625 C 311.695312 330.230469 314.101562 329.289062 316.523438 329.34375 C 318.179688 326.390625 318.84375 326.28125 320.742188 328.804688 C 322.019531 330.5 323.605469 331.910156 324.910156 333.558594 C 335.070312 346.390625 346.371094 358.242188 356.851562 370.800781 C 362.765625 377.878906 368.988281 384.707031 375.070312 391.648438 C 375.070312 392.535156 374.613281 393.1875 373.933594 393.675781 C 369.949219 396.53125 366.339844 399.871094 362.191406 402.527344 C 358.480469 404.902344 354.832031 407.375 351.367188 410.117188 C 347.839844 412.914062 344.09375 415.429688 340.515625 418.164062 C 339.25 419.132812 338.339844 418.898438 337.421875 417.820312 C 337.035156 417.363281 336.683594 416.875 336.328125 416.390625 C 333.882812 413.066406 331.980469 409.398438 330.140625 405.734375 C 322.941406 391.367188 315.886719 376.929688 308.777344 362.519531 C 308.558594 362.066406 308.335938 361.621094 308.132812 361.15625 C 305.296875 354.609375 302.011719 348.289062 298.609375 342.023438 C 296.890625 338.863281 294.800781 335.90625 293.464844 332.539062 " fill-opacity="1" fill-rule="nonzero"/><path fill="#fab685" d="M 375.070312 391.648438 C 368.988281 384.707031 362.765625 377.878906 356.851562 370.800781 C 346.371094 358.242188 335.070312 346.390625 324.910156 333.558594 C 323.605469 331.910156 322.019531 330.5 320.742188 328.804688 C 318.84375 326.28125 318.179688 326.390625 316.523438 329.34375 C 314.101562 329.289062 311.695312 330.230469 309.164062 330.015625 C 312.015625 328.160156 315 326.535156 318.058594 325.0625 C 325.109375 321.660156 329.078125 316.058594 330.304688 308.382812 C 330.664062 306.121094 331.246094 303.890625 331.722656 301.644531 C 331.90625 301.722656 332.199219 301.746094 332.257812 301.878906 C 333.589844 304.824219 336.035156 306.261719 338.976562 307.324219 C 345.175781 309.5625 351.527344 311.199219 357.957031 312.570312 C 358.957031 312.78125 359.910156 312.960938 360.585938 313.800781 C 359.808594 314.84375 358.988281 315.859375 358.257812 316.9375 C 355.675781 320.765625 356.109375 323.117188 359.871094 325.816406 C 361.894531 327.269531 364.003906 328.574219 366.636719 329.609375 C 365.132812 331.1875 363.769531 332.492188 362.558594 333.921875 C 360.324219 336.542969 360.652344 339.476562 363.441406 341.460938 C 367.269531 344.183594 371.394531 346.140625 376.277344 345.851562 C 376.964844 345.8125 377.6875 345.71875 378.390625 346.121094 C 379.175781 347.441406 379.253906 349.105469 380.453125 350.339844 C 383.742188 353.722656 387.550781 355.023438 392.199219 353.925781 C 393.394531 353.640625 394.578125 352.878906 396.289062 353.421875 C 395.394531 359.296875 395.695312 365.191406 395.5625 371.078125 C 389.648438 376.234375 385.132812 382.519531 381.011719 389.121094 C 378.574219 388.886719 376.976562 390.628906 375.070312 391.648438 " fill-opacity="1" fill-rule="nonzero"/><path fill="#757633" d="M 375.070312 391.648438 C 376.976562 390.628906 378.574219 388.886719 381.015625 389.121094 C 381.488281 390.238281 382.683594 391.011719 381.902344 392.640625 C 380.78125 394.988281 380.984375 395.023438 383.15625 396.695312 C 388.851562 401.085938 394.59375 405.417969 400.265625 409.839844 C 403.890625 412.660156 407.257812 415.8125 411.09375 418.355469 C 413.664062 420.058594 415.234375 419.894531 417.542969 417.808594 C 418.417969 417.019531 419.066406 415.882812 420.453125 415.84375 C 421.5 417.347656 422.632812 418.804688 422.90625 420.695312 C 421.75 420.65625 421.1875 421.585938 420.394531 422.175781 C 416.507812 425.050781 413.472656 425.984375 408.886719 422.875 C 405.902344 420.851562 403.136719 418.542969 400.339844 416.265625 C 395.691406 412.472656 390.902344 408.851562 386.21875 405.09375 C 384.167969 403.445312 382.273438 401.5 379.914062 400.398438 C 379.210938 400.851562 379.300781 401.386719 379.292969 401.871094 C 379.085938 412.910156 379.289062 423.941406 378.828125 434.992188 C 378.421875 444.792969 378.433594 454.640625 379.164062 464.496094 C 379.917969 474.691406 378.863281 484.960938 379.824219 495.191406 C 380.382812 501.175781 380.003906 507.207031 380.3125 513.226562 C 380.695312 520.625 381.042969 528.054688 381.058594 535.476562 C 381.070312 541.394531 382.128906 547.273438 381.710938 553.203125 C 381.699219 553.402344 381.695312 553.613281 381.746094 553.804688 C 383.003906 558.511719 382.023438 563.367188 382.785156 568.15625 C 383.503906 572.671875 383.015625 577.335938 383.371094 581.957031 C 383.890625 588.738281 383.554688 595.578125 384.054688 602.394531 C 384.347656 606.386719 384.714844 610.351562 385.3125 614.304688 C 383.472656 614.148438 381.671875 613.800781 379.910156 613.246094 C 378.777344 608.9375 379.753906 604.449219 378.757812 600.109375 C 378.40625 598.578125 378.628906 596.898438 378.6875 595.292969 C 378.957031 587.65625 378.003906 580.0625 377.910156 572.433594 C 377.863281 568.457031 378.007812 564.359375 377.347656 560.449219 C 376.550781 555.761719 377.570312 551 376.292969 546.394531 C 376.242188 546.207031 376.257812 545.996094 376.269531 545.792969 C 376.703125 538.152344 375.796875 530.546875 375.53125 522.933594 C 375.277344 515.609375 375.523438 508.253906 374.910156 500.980469 C 374.410156 495.046875 374.753906 489.140625 374.433594 483.234375 C 373.386719 464.054688 373.785156 444.847656 373.964844 425.660156 C 374.03125 418.757812 374.402344 411.828125 374.449219 404.910156 C 374.460938 403.25 375.628906 401.65625 374.660156 399.75 C 372.960938 400.117188 372.203125 401.71875 370.929688 402.570312 C 366.105469 405.808594 361.308594 409.089844 356.582031 412.476562 C 352.351562 415.503906 348.234375 418.695312 344.066406 421.8125 C 342.929688 422.664062 341.707031 423.417969 340.3125 423.667969 C 337.515625 424.167969 335.140625 423.375 333.386719 421.035156 C 331.527344 418.542969 329.878906 415.925781 328.367188 413.199219 C 325.097656 407.3125 322.15625 401.273438 319.320312 395.167969 C 316.316406 388.695312 312.914062 382.40625 309.789062 375.984375 C 304.914062 365.957031 300.152344 355.875 295.277344 345.84375 C 293.695312 342.597656 291.898438 339.457031 290.207031 336.261719 C 289.691406 335.285156 289.117188 334.320312 289.242188 333.140625 C 290.460938 331.621094 291.882812 331.523438 293.464844 332.539062 C 294.800781 335.90625 296.890625 338.863281 298.609375 342.023438 C 302.011719 348.289062 305.296875 354.609375 308.132812 361.15625 C 308.335938 361.621094 308.558594 362.066406 308.777344 362.519531 C 315.886719 376.929688 322.941406 391.367188 330.140625 405.734375 C 331.980469 409.398438 333.882812 413.066406 336.328125 416.390625 C 336.683594 416.875 337.035156 417.363281 337.421875 417.820312 C 338.339844 418.898438 339.25 419.132812 340.515625 418.164062 C 344.09375 415.429688 347.839844 412.914062 351.367188 410.117188 C 354.832031 407.375 358.480469 404.902344 362.191406 402.527344 C 366.339844 399.871094 369.949219 396.53125 373.933594 393.675781 C 374.613281 393.1875 375.070312 392.535156 375.070312 391.648438 " fill-opacity="1" fill-rule="nonzero"/><path fill="#da654b" d="M 395.5625 371.078125 C 395.695312 365.191406 395.394531 359.296875 396.289062 353.421875 C 394.578125 352.878906 393.394531 353.640625 392.199219 353.925781 C 387.550781 355.023438 383.742188 353.722656 380.453125 350.339844 C 379.253906 349.105469 379.175781 347.441406 378.390625 346.121094 C 377.6875 345.71875 376.964844 345.8125 376.277344 345.851562 C 371.394531 346.140625 367.269531 344.183594 363.441406 341.460938 C 360.652344 339.476562 360.324219 336.542969 362.558594 333.921875 C 363.769531 332.492188 365.132812 331.1875 366.636719 329.609375 C 364.003906 328.574219 361.894531 327.269531 359.871094 325.816406 C 356.109375 323.117188 355.675781 320.765625 358.257812 316.9375 C 358.988281 315.859375 359.808594 314.84375 360.585938 313.800781 C 361.585938 312.6875 362.546875 311.535156 363.59375 310.46875 C 366.195312 307.816406 368.84375 305.207031 371.449219 302.5625 C 371.90625 302.097656 372.640625 301.703125 372.203125 300.707031 C 367.578125 300.144531 363.140625 298.640625 358.683594 297.171875 C 353.492188 295.460938 349.386719 292.164062 345.570312 288.421875 C 345.324219 288.207031 345.082031 287.996094 344.835938 287.789062 L 344.871094 287.804688 C 344.796875 286.75 344.125 285.953125 343.726562 285.039062 C 343 283.371094 342.40625 281.699219 342.398438 279.828125 C 342.382812 275.925781 344.019531 274.179688 347.996094 273.90625 C 352.035156 273.628906 356.019531 274.242188 360.003906 274.691406 C 366.269531 275.394531 372.511719 276.300781 378.703125 277.539062 C 388.523438 279.511719 398.492188 280.671875 408.238281 283.054688 C 415.839844 284.90625 423.394531 286.914062 430.949219 288.953125 C 437.328125 290.683594 442.058594 294.359375 445.652344 299.726562 C 445.988281 300.230469 446.230469 300.792969 446.808594 301.082031 C 448.847656 304.496094 450.847656 307.933594 452.941406 311.316406 C 454.363281 313.609375 455.519531 316.027344 456.730469 318.425781 C 457.347656 319.652344 457.597656 320.851562 457.089844 322.15625 C 455.066406 322.726562 453.90625 321.867188 453.078125 320.019531 C 450.488281 314.214844 446.921875 308.953125 443.5625 303.589844 C 440.757812 299.101562 437.363281 295.085938 432.050781 293.429688 C 427.734375 292.082031 423.382812 290.863281 419.011719 289.714844 C 405.902344 286.277344 392.578125 283.910156 379.222656 281.660156 C 373.589844 280.714844 367.972656 279.664062 362.3125 278.890625 C 358.339844 278.347656 354.339844 278 350.347656 277.605469 C 348.917969 277.46875 347.53125 277.652344 346.3125 278.820312 C 346.40625 283.628906 349.011719 287.011719 352.78125 289.65625 C 357.550781 293 362.980469 294.804688 368.566406 296.210938 C 369.832031 296.53125 371.132812 296.722656 372.378906 297.101562 C 374.519531 297.746094 376.480469 297.617188 378.441406 296.410156 C 381.78125 294.355469 385.347656 294.335938 389.199219 294.914062 C 397.640625 296.179688 405.992188 297.828125 414.265625 299.902344 C 416.40625 300.441406 418.492188 301.191406 420.589844 301.890625 C 421.25 302.109375 421.925781 302.375 422.382812 302.960938 C 423.304688 304.132812 422.691406 305.707031 421.210938 305.925781 C 420.390625 306.046875 419.636719 305.761719 418.867188 305.496094 C 409.710938 302.367188 400.226562 300.710938 390.703125 299.214844 C 389.417969 299.011719 388.140625 298.785156 386.84375 298.632812 C 382.875 298.15625 379.765625 299.78125 377.082031 302.414062 C 372.125 307.273438 367.117188 312.101562 362.679688 317.445312 C 360.234375 320.398438 359.054688 320.925781 363.597656 323.867188 C 364.523438 324.46875 365.472656 325.054688 366.480469 325.496094 C 368.296875 326.296875 369.894531 326.171875 371.347656 324.507812 C 375.457031 319.820312 379.921875 315.449219 384.171875 310.894531 C 388.589844 306.152344 393.835938 305.273438 399.859375 306.246094 C 410.1875 307.910156 420.226562 310.78125 430.335938 313.367188 C 431.691406 313.714844 433.066406 314.007812 434.4375 314.316406 C 434.828125 314.40625 435.253906 314.414062 435.609375 314.574219 C 436.703125 315.058594 437.570312 315.847656 437.183594 317.132812 C 436.804688 318.394531 435.714844 318.664062 434.5 318.378906 C 431.765625 317.734375 429.015625 317.152344 426.308594 316.414062 C 417.785156 314.09375 409.230469 311.898438 400.535156 310.332031 C 397.957031 309.867188 395.308594 310.003906 392.695312 310.15625 C 390.671875 310.277344 389.152344 311.609375 387.78125 312.90625 C 382.734375 317.675781 378.199219 322.925781 373.542969 328.070312 C 371.382812 330.460938 369.066406 332.699219 366.835938 335.023438 C 364.71875 337.222656 364.828125 337.921875 367.464844 339.59375 C 370.8125 341.722656 374.449219 342.640625 378.402344 342.167969 C 380.121094 341.960938 381.777344 341.582031 382.902344 340.074219 C 385.863281 336.113281 389.703125 332.953125 392.855469 329.160156 C 394.835938 326.769531 397.628906 325.945312 400.660156 325.867188 C 407.222656 325.703125 413.664062 326.730469 420.089844 327.886719 C 423.148438 328.4375 426.203125 329.007812 429.269531 329.511719 C 430.183594 329.664062 431.042969 329.921875 431.804688 330.417969 C 432.59375 330.933594 433.238281 331.636719 432.847656 332.679688 C 432.519531 333.550781 431.726562 333.847656 430.871094 333.738281 C 428.789062 333.464844 426.699219 333.195312 424.636719 332.785156 C 416.753906 331.207031 408.863281 329.796875 400.761719 329.972656 C 398.582031 330.019531 396.96875 330.644531 395.457031 332.230469 C 391.507812 336.378906 387.550781 340.527344 383.96875 345.003906 C 382.554688 346.769531 382.652344 347.332031 384.402344 348.65625 C 387.191406 350.757812 390.230469 350.527344 393.265625 349.398438 C 395.929688 348.40625 398.25 346.769531 400.394531 344.9375 C 403.75 342.070312 407.4375 340.632812 411.992188 340.917969 C 417.101562 341.242188 422.199219 341.566406 427.285156 342.167969 C 428.558594 342.320312 429.484375 342.773438 429.347656 344.1875 C 429.207031 345.648438 428.027344 345.992188 426.886719 345.730469 C 421.828125 344.601562 416.652344 345.621094 411.5625 344.757812 C 409.179688 344.351562 406.769531 344.960938 404.757812 346.589844 C 403.277344 347.789062 401.730469 348.910156 400.28125 350.011719 C 399.683594 353.933594 399.957031 357.824219 399.402344 361.6875 C 399.019531 364.351562 399.238281 367.109375 399.238281 369.828125 C 399.234375 371.183594 398.914062 372.230469 397.335938 372.378906 C 396.746094 371.945312 396.152344 371.511719 395.5625 371.078125 " fill-opacity="1" fill-rule="nonzero"/><g clip-path="url(#id3)"><path fill="#da684c" d="M 549.84375 701.808594 C 549.5625 702.65625 549.828125 703.191406 550.132812 703.726562 C 551.429688 705.992188 552.65625 708.296875 554.035156 710.511719 C 558.066406 716.992188 562.664062 723.078125 567.152344 729.246094 C 568.890625 731.628906 570.554688 732.179688 573.253906 731.414062 C 577.394531 730.246094 577.65625 729.78125 575.40625 726.292969 C 571.105469 719.628906 566.546875 713.132812 562.785156 706.132812 C 561.648438 704.011719 560.414062 701.941406 559.199219 699.859375 C 558.730469 699.058594 558.160156 698.199219 557.074219 698.65625 C 554.605469 699.691406 551.992188 700.429688 549.84375 701.808594 Z M 566.113281 734.808594 C 565.539062 732.835938 564.394531 731.425781 563.292969 730.015625 C 559.21875 724.800781 555.285156 719.503906 551.785156 713.867188 C 549.925781 710.875 548.347656 707.742188 546.488281 704.761719 C 545.882812 703.789062 545.316406 703.265625 544.097656 703.546875 C 540.921875 704.277344 537.75 704.125 534.550781 703.574219 C 532.523438 703.222656 530.449219 703.140625 528.414062 702.945312 C 528.261719 703.65625 528.523438 704.097656 528.828125 704.488281 C 530.632812 706.765625 532.441406 709.039062 534.28125 711.292969 C 538.46875 716.417969 542.847656 721.371094 547.257812 726.304688 C 548.773438 728.003906 550.820312 729.449219 551.578125 731.644531 C 552.203125 733.445312 553.507812 734.085938 554.945312 734.777344 C 556.402344 735.480469 557.988281 735.941406 559.566406 736.003906 C 561.6875 736.082031 563.996094 736.703125 566.113281 734.808594 Z M 510.6875 715.550781 C 512.316406 715.347656 513.328125 716.035156 514.515625 717.261719 C 517.300781 720.144531 520.640625 722.4375 523.941406 724.726562 C 526.914062 726.78125 529.972656 728.714844 532.957031 730.761719 C 535.824219 732.722656 538.910156 734.042969 542.359375 734.585938 C 544.359375 734.902344 546.085938 734.480469 547.863281 733.40625 C 547.230469 731.429688 545.695312 730.191406 544.492188 728.820312 C 540.253906 723.992188 535.898438 719.261719 531.878906 714.242188 C 528.804688 710.40625 525.757812 706.546875 522.734375 702.664062 C 521.972656 701.695312 521.074219 701.039062 519.929688 700.53125 C 515.0625 698.367188 510.304688 695.984375 505.742188 693.210938 C 500.804688 690.210938 497.21875 685.90625 494.191406 681.109375 C 490.28125 674.910156 486.335938 668.71875 482.800781 662.285156 C 478.917969 655.210938 475.960938 647.757812 473.574219 640.070312 C 473.132812 638.632812 472.734375 637.179688 472.316406 635.734375 C 472.113281 635.546875 471.910156 635.355469 471.710938 635.167969 L 471.730469 635.207031 C 471.984375 633.261719 471.265625 631.476562 470.769531 629.664062 C 470.417969 628.363281 470.441406 627.296875 471.824219 626.65625 C 473.621094 626.925781 473.800781 628.449219 474.210938 629.765625 C 475.761719 634.753906 477.148438 639.785156 478.972656 644.683594 C 482 652.816406 485.804688 660.558594 490.351562 667.9375 C 492.933594 672.128906 495.648438 676.238281 498.25 680.417969 C 501.070312 684.949219 504.742188 688.59375 509.441406 691.117188 C 513.339844 693.207031 517.273438 695.273438 521.324219 697.046875 C 525.585938 698.914062 530.191406 699.539062 534.820312 699.851562 C 538.398438 700.085938 541.988281 700.894531 545.507812 699.324219 C 548.714844 697.886719 552.007812 696.640625 555.242188 695.261719 C 559.773438 693.328125 564.269531 691.300781 568.808594 689.402344 C 571.363281 688.332031 572.113281 688.785156 572.785156 691.480469 C 569.855469 694.136719 566.222656 695.703125 562.972656 697.640625 C 562.539062 698.675781 563.1875 699.296875 563.53125 699.988281 C 566.09375 705.140625 569.550781 709.726562 572.851562 714.40625 C 575.753906 718.519531 578.539062 722.667969 580.210938 727.484375 C 581.210938 730.371094 580.859375 731.679688 578.1875 733.199219 C 577.578125 733.546875 576.945312 733.875 576.289062 734.113281 C 574.371094 734.796875 572.058594 734.734375 571.007812 737 C 567.226562 738.652344 563.460938 740.402344 559.136719 739.476562 C 556.878906 738.988281 554.59375 738.523438 552.570312 737.347656 C 551.332031 736.628906 550.230469 736.523438 548.894531 737.144531 C 545.21875 738.867188 541.476562 738.574219 537.738281 737.257812 C 535.253906 736.386719 532.96875 735.136719 530.753906 733.734375 C 524.628906 729.855469 518.804688 725.558594 513.324219 720.820312 C 511.777344 719.480469 509.898438 718.132812 510.6875 715.550781 " fill-opacity="1" fill-rule="nonzero"/></g><path fill="#f48469" d="M 345.570312 288.421875 C 349.386719 292.164062 353.492188 295.460938 358.683594 297.171875 C 363.140625 298.640625 367.578125 300.144531 372.203125 300.707031 C 372.640625 301.703125 371.90625 302.097656 371.449219 302.5625 C 368.84375 305.207031 366.195312 307.816406 363.59375 310.46875 C 362.546875 311.535156 361.585938 312.6875 360.585938 313.800781 C 359.910156 312.960938 358.957031 312.78125 357.957031 312.570312 C 351.527344 311.199219 345.175781 309.5625 338.976562 307.324219 C 336.035156 306.261719 333.589844 304.824219 332.257812 301.878906 C 332.199219 301.746094 331.90625 301.722656 331.722656 301.644531 C 332.046875 294.527344 332.394531 287.410156 332.679688 280.292969 C 332.796875 277.386719 332.710938 274.476562 332.375 271.585938 C 333.035156 271.558594 333.570312 271.867188 333.886719 272.382812 C 334.773438 273.847656 336.070312 274.953125 337.113281 276.269531 C 338.824219 278.433594 340.515625 280.550781 341.339844 283.34375 C 341.859375 285.089844 342.816406 287.015625 344.871094 287.804688 C 344.871094 287.804688 344.835938 287.789062 344.835938 287.789062 C 344.964844 288.132812 345.214844 288.332031 345.570312 288.421875 " fill-opacity="1" fill-rule="nonzero"/><path fill="#757633" d="M 252.878906 538.554688 C 252.257812 537.8125 252.738281 536.8125 252.230469 535.902344 C 251.546875 535.589844 250.753906 535.222656 249.964844 534.863281 C 249 513.480469 249.480469 492.089844 249.320312 470.699219 C 249.292969 466.78125 250.285156 462.945312 250.007812 459.011719 C 249.90625 457.601562 251.246094 456.484375 252.472656 456.546875 C 253.597656 456.601562 254.652344 457.636719 254.769531 458.90625 C 254.847656 459.703125 254.792969 460.515625 254.792969 461.320312 C 254.792969 479.210938 254.574219 497.109375 254.910156 514.996094 C 255.039062 521.902344 255.386719 528.816406 255.386719 535.730469 C 255.386719 538.035156 255.320312 538.035156 252.878906 538.554688 " fill-opacity="1" fill-rule="nonzero"/><path fill="#d8664b" d="M 284.507812 600.367188 C 281.984375 601.851562 279.222656 601.386719 276.5625 601.152344 C 271.886719 600.742188 267.226562 600.113281 262.570312 599.523438 C 257.414062 598.871094 252.269531 598.148438 247.117188 597.46875 C 243.054688 596.933594 239 596.351562 234.925781 595.90625 C 231.445312 595.53125 228.039062 594.644531 224.523438 594.527344 C 224.039062 594.511719 223.566406 594.246094 223.085938 594.085938 C 222.425781 593.867188 222.148438 593.382812 222.171875 592.710938 C 222.191406 592.046875 222.496094 591.484375 223.117188 591.316406 C 223.78125 591.140625 224.511719 591.050781 225.191406 591.128906 C 230.847656 591.800781 236.5 592.515625 242.152344 593.226562 C 247.605469 593.90625 253.054688 594.597656 258.507812 595.285156 C 260.78125 596.230469 263.273438 596.191406 265.605469 596.34375 C 271.003906 596.691406 276.324219 597.917969 281.769531 597.726562 C 283.929688 597.648438 283.960938 597.820312 284.507812 600.367188 " fill-opacity="1" fill-rule="nonzero"/><path fill="#828442" d="M 471.824219 626.65625 C 470.441406 627.296875 470.417969 628.363281 470.769531 629.664062 C 471.265625 631.476562 471.984375 633.261719 471.730469 635.207031 C 468.46875 633.445312 465.175781 631.734375 461.949219 629.910156 C 454.421875 625.652344 446.300781 623.660156 437.703125 623.648438 C 432.035156 623.644531 426.519531 622.46875 420.964844 621.667969 C 410.027344 620.089844 399.21875 617.792969 388.472656 615.230469 C 387.40625 614.976562 386.363281 614.613281 385.3125 614.300781 C 384.714844 610.351562 384.347656 606.386719 384.054688 602.394531 C 383.554688 595.578125 383.890625 588.738281 383.371094 581.957031 C 383.015625 577.335938 383.503906 572.671875 382.785156 568.15625 C 382.023438 563.367188 383.003906 558.511719 381.746094 553.804688 C 381.695312 553.613281 381.699219 553.402344 381.710938 553.203125 C 382.128906 547.273438 381.070312 541.394531 381.058594 535.476562 C 381.042969 528.054688 380.695312 520.625 380.3125 513.226562 C 380.003906 507.207031 380.382812 501.175781 379.824219 495.191406 C 378.863281 484.960938 379.917969 474.691406 379.164062 464.496094 C 378.433594 454.640625 378.421875 444.792969 378.828125 434.992188 C 379.289062 423.941406 379.085938 412.910156 379.292969 401.871094 C 379.300781 401.386719 379.210938 400.851562 379.914062 400.398438 C 382.273438 401.5 384.167969 403.445312 386.21875 405.09375 C 390.902344 408.851562 395.691406 412.472656 400.339844 416.265625 C 403.136719 418.542969 405.902344 420.851562 408.886719 422.875 C 413.472656 425.984375 416.507812 425.050781 420.394531 422.175781 C 421.1875 421.585938 421.75 420.65625 422.90625 420.695312 C 425.3125 424.488281 426.460938 428.804688 427.472656 433.058594 C 434.257812 461.566406 441.738281 489.90625 448.507812 518.410156 C 452.769531 536.363281 456.257812 554.496094 459.667969 572.632812 C 462.152344 585.851562 465.199219 598.941406 468.316406 612.019531 C 469.480469 616.898438 470.65625 621.777344 471.824219 626.65625 " fill-opacity="1" fill-rule="nonzero"/><path fill="#838343" d="M 395.5625 371.078125 C 396.152344 371.511719 396.746094 371.945312 397.335938 372.378906 C 397.265625 377.394531 397.570312 382.367188 398.554688 387.304688 C 400.222656 395.6875 405.015625 402.050781 411.355469 407.425781 C 412.878906 408.714844 414.558594 409.835938 416.226562 410.933594 C 418.121094 412.175781 419.566406 413.757812 420.453125 415.84375 C 419.066406 415.882812 418.417969 417.019531 417.542969 417.808594 C 415.234375 419.894531 413.664062 420.058594 411.09375 418.355469 C 407.257812 415.8125 403.890625 412.660156 400.265625 409.839844 C 394.59375 405.417969 388.851562 401.085938 383.15625 396.695312 C 380.984375 395.023438 380.78125 394.988281 381.902344 392.640625 C 382.683594 391.011719 381.488281 390.238281 381.015625 389.121094 C 385.132812 382.519531 389.648438 376.234375 395.5625 371.078125 " fill-opacity="1" fill-rule="nonzero"/><path fill="#da654b" d="M 531.726562 521.570312 C 533.726562 521.5 534.5 522.898438 535.046875 524.453125 C 535.636719 526.140625 536.097656 527.871094 536.996094 529.433594 C 537.25 531.960938 538.34375 534.253906 539.117188 536.625 C 545.722656 556.9375 552.050781 577.332031 557.136719 598.089844 C 558.066406 601.882812 558.898438 605.691406 559.792969 609.492188 C 560.046875 610.570312 560.003906 611.582031 558.851562 612.035156 C 557.597656 612.527344 556.734375 611.898438 556.210938 610.730469 C 555.046875 608.144531 554.648438 605.339844 554.089844 602.601562 C 552.429688 594.445312 550.164062 586.445312 547.832031 578.460938 C 542.59375 560.554688 537.203125 542.703125 531.402344 524.972656 C 530.992188 523.710938 530.941406 522.640625 531.726562 521.570312 " fill-opacity="1" fill-rule="nonzero"/><path fill="#828442" d="M 471.710938 635.167969 C 471.910156 635.355469 472.113281 635.546875 472.316406 635.734375 C 472.007812 635.660156 471.785156 635.488281 471.710938 635.167969 " fill-opacity="1" fill-rule="nonzero"/><path fill="#13110f" d="M 376.5 168.160156 C 375.167969 167.917969 374.371094 168.601562 373.535156 169.09375 C 372.929688 169.449219 372.40625 169.9375 371.816406 170.3125 C 370.339844 171.253906 369.15625 171.207031 368.304688 170.203125 C 367.40625 169.144531 367.613281 167.75 368.996094 166.511719 C 370.738281 164.957031 372.71875 163.753906 375.007812 163.183594 C 379.519531 162.050781 383.785156 162.621094 387.722656 165.183594 C 389.75 166.507812 391.125 168.351562 391.613281 170.71875 C 393.273438 178.707031 392.390625 186.3125 387.980469 193.335938 C 386.515625 195.671875 384.652344 197.621094 382.320312 199.101562 C 375.789062 203.25 368.617188 200.140625 367.164062 192.550781 C 366.601562 189.625 366.769531 186.734375 367.597656 183.894531 C 369.054688 178.914062 371.433594 174.414062 374.839844 170.472656 C 375.417969 169.808594 376.289062 169.351562 376.5 168.160156 " fill-opacity="1" fill-rule="nonzero"/><path fill="#13110f" d="M 460.625 189.582031 C 462.535156 196.039062 461.96875 202.292969 459.019531 208.335938 C 457.8125 210.8125 456.171875 212.953125 453.953125 214.613281 C 447.660156 219.324219 440.597656 217.25 437.96875 209.875 C 436.328125 205.277344 436.824219 200.738281 438.738281 196.359375 C 440.070312 193.3125 441.855469 190.484375 443.90625 187.882812 C 448.652344 181.855469 457.128906 180.757812 464.386719 185.050781 C 467.003906 186.59375 468.835938 188.789062 470.007812 191.542969 C 470.492188 192.683594 470.207031 193.738281 469.144531 194.453125 C 468.148438 195.128906 466.882812 194.835938 465.953125 193.710938 C 465.507812 193.175781 465.191406 192.527344 464.804688 191.941406 C 463.902344 190.574219 462.824219 189.414062 461.179688 188.941406 C 460.949219 188.765625 460.671875 188.574219 460.4375 188.851562 C 460.21875 189.113281 460.386719 189.378906 460.625 189.582031 " fill-opacity="1" fill-rule="nonzero"/><path fill="#ec694f" d="M 464.398438 245.519531 C 457.144531 245.453125 449.324219 240.007812 447.441406 233.972656 C 446.628906 231.359375 447.261719 230.265625 449.53125 228.761719 C 452.300781 226.917969 455.125 227.425781 457.933594 228.164062 C 462.042969 229.238281 465.890625 230.980469 469.167969 233.753906 C 471.527344 235.753906 472.25 238.410156 471.609375 241.375 C 471.304688 242.800781 470.367188 243.886719 468.96875 244.480469 C 467.386719 245.148438 465.785156 245.746094 464.398438 245.519531 " fill-opacity="1" fill-rule="nonzero"/><path fill="#ec694f" d="M 360.609375 220.765625 C 356.257812 221.078125 352.511719 219.574219 349.046875 217.136719 C 347.777344 216.242188 346.820312 215.140625 346.148438 213.75 C 344.640625 210.652344 345.570312 207.578125 348.703125 206.203125 C 350.402344 205.460938 352.1875 205.097656 354.222656 205.347656 C 357.429688 205.734375 360.519531 206.464844 363.589844 207.375 C 365.546875 207.957031 367.3125 208.855469 368.695312 210.417969 C 371.214844 213.261719 370.777344 216.804688 367.722656 219.019531 C 365.550781 220.601562 363.144531 220.949219 360.609375 220.765625 " fill-opacity="1" fill-rule="nonzero"/><path fill="#d9674a" d="M 414.976562 199.207031 C 414.558594 201.9375 413.71875 204.761719 412.203125 207.242188 C 409.273438 212.042969 405.960938 216.585938 402.0625 220.671875 C 401.371094 221.402344 400.703125 222.132812 400.160156 222.996094 C 398.71875 225.28125 398.828125 226.476562 400.96875 228.128906 C 403.296875 229.929688 405.835938 231.3125 408.832031 231.6875 C 409.722656 231.800781 410.613281 232.042969 411.441406 232.382812 C 412.308594 232.734375 413.023438 233.398438 412.980469 234.417969 C 412.933594 235.5 412.324219 236.277344 411.308594 236.730469 C 410.632812 237.027344 409.933594 237.09375 409.238281 236.976562 C 404.371094 236.15625 399.984375 234.253906 396.417969 230.804688 C 393.121094 227.613281 393.351562 223.140625 396.765625 219.257812 C 399.675781 215.945312 402.550781 212.609375 405.246094 209.109375 C 407.488281 206.195312 409.246094 203.101562 410.222656 199.5625 C 410.355469 199.082031 410.527344 198.605469 410.710938 198.144531 C 411.375 196.472656 412.355469 195.753906 413.570312 196.085938 C 415.148438 196.515625 414.976562 197.820312 414.976562 199.207031 " fill-opacity="1" fill-rule="nonzero"/><path fill="#31201b" d="M 382.1875 142.726562 C 390.898438 143.136719 398.914062 146.292969 406.210938 151.453125 C 407.769531 152.558594 409.289062 153.710938 411.085938 154.421875 C 413.601562 155.414062 415.320312 154.847656 416.699219 152.539062 C 417.109375 151.847656 417.40625 151.085938 417.847656 150.421875 C 418.46875 149.488281 419.375 149.070312 420.453125 149.53125 C 421.511719 149.988281 421.835938 150.878906 421.679688 152.011719 C 421.03125 156.648438 416.144531 160.179688 411.503906 159.34375 C 408.859375 158.875 406.644531 157.492188 404.476562 156.015625 C 400.648438 153.40625 396.664062 151.121094 392.230469 149.640625 C 388.773438 148.480469 385.277344 147.714844 381.625 147.601562 C 380.226562 147.554688 378.816406 147.398438 377.441406 147.132812 C 376.21875 146.902344 375.535156 146.042969 375.59375 144.753906 C 375.652344 143.445312 376.511719 142.796875 377.691406 142.546875 C 379.097656 142.25 380.484375 142.765625 382.1875 142.726562 " fill-opacity="1" fill-rule="nonzero"/><path fill="#31201b" d="M 461.285156 174.082031 C 454.113281 174.222656 449.234375 168.074219 450.8125 161.410156 C 451.070312 160.324219 451.648438 159.523438 452.8125 159.484375 C 454.125 159.4375 454.855469 160.253906 455.046875 161.488281 C 455.199219 162.476562 455.152344 163.496094 455.289062 164.488281 C 455.808594 168.199219 457.476562 169.597656 461.207031 169.359375 C 464.121094 169.171875 466.96875 168.496094 469.835938 167.949219 C 476.410156 166.699219 483.015625 166.492188 489.648438 167.480469 C 490.34375 167.582031 491.050781 167.699219 491.707031 167.925781 C 493.300781 168.484375 494.019531 169.582031 493.640625 170.859375 C 493.234375 172.230469 492.210938 172.71875 490.847656 172.601562 C 490.449219 172.5625 490.050781 172.480469 489.65625 172.417969 C 483.128906 171.328125 476.625 171.566406 470.152344 172.84375 C 467.085938 173.449219 464.003906 173.886719 461.285156 174.082031 " fill-opacity="1" fill-rule="nonzero"/><path fill="#bf5a46" d="M 423.089844 258.730469 C 417.289062 258.789062 411.3125 260.019531 405.402344 261.683594 C 400.460938 263.074219 395.519531 264.441406 391.078125 267.128906 C 390.027344 267.761719 388.996094 267.925781 388.167969 266.753906 C 387.40625 265.675781 387.632812 264.703125 388.472656 263.761719 C 390 262.050781 392.007812 261.0625 394.074219 260.304688 C 401.058594 257.757812 408.097656 255.289062 415.484375 254.226562 C 419.035156 253.714844 422.640625 253.191406 426.28125 253.4375 C 427.195312 253.503906 428.074219 253.640625 428.941406 253.914062 C 430.183594 254.300781 431.226562 254.953125 431.046875 256.425781 C 430.882812 257.777344 429.902344 258.601562 428.589844 258.703125 C 426.890625 258.828125 425.171875 258.730469 423.089844 258.730469 " fill-opacity="1" fill-rule="nonzero"/><path fill="#db664b" d="M 510.261719 224.632812 C 512.070312 224.980469 513.410156 225.292969 514.769531 225.484375 C 516.027344 225.667969 517.015625 226.214844 516.761719 227.5625 C 516.519531 228.84375 515.261719 228.675781 514.269531 228.636719 C 512.972656 228.578125 511.679688 228.605469 510.382812 228.316406 C 508.21875 227.839844 507.765625 228.066406 507.011719 230.167969 C 506.371094 231.945312 505.539062 233.691406 505.589844 235.667969 C 505.609375 236.464844 505.246094 237.027344 504.367188 237.066406 C 503.429688 237.113281 502.820312 236.644531 502.640625 235.742188 C 502.230469 233.683594 502.808594 231.722656 503.539062 229.875 C 504.570312 227.261719 505.769531 224.699219 507.472656 222.441406 C 511.09375 217.632812 515.65625 216.035156 521.214844 217.785156 C 521.785156 217.964844 522.351562 218.210938 522.851562 218.53125 C 523.714844 219.09375 524.589844 219.800781 524.085938 220.964844 C 523.589844 222.105469 522.554688 222.09375 521.503906 221.742188 C 520.742188 221.484375 519.996094 221.171875 519.214844 220.992188 C 515.613281 220.164062 512.78125 221.367188 510.261719 224.632812 " fill-opacity="1" fill-rule="nonzero"/><path fill="#d9674a" d="M 325.144531 159.167969 C 323.542969 159.167969 322.050781 159.175781 320.558594 159.164062 C 319.695312 159.15625 318.914062 158.976562 318.871094 157.898438 C 318.832031 156.792969 319.476562 156.261719 320.507812 156.121094 C 321.660156 155.960938 322.878906 156.28125 324.230469 155.683594 C 323.128906 153.75 321.992188 152.226562 319.820312 151.820312 C 319.425781 151.746094 319.039062 151.621094 318.652344 151.519531 C 317.582031 151.234375 316.277344 151.0625 316.5625 149.523438 C 316.832031 148.054688 318.136719 148.230469 319.234375 148.210938 C 322.601562 148.128906 324.96875 149.871094 326.683594 152.542969 C 328.226562 154.941406 329.066406 157.621094 329.125 160.503906 C 329.207031 164.621094 329.445312 168.753906 327.972656 172.722656 C 327.800781 173.191406 327.785156 173.730469 327.535156 174.144531 C 327.117188 174.828125 326.582031 175.566406 325.613281 175.109375 C 324.847656 174.75 324.300781 174.128906 324.542969 173.179688 C 325.011719 171.332031 325.324219 169.457031 325.699219 167.59375 C 326.257812 164.84375 326.128906 162.222656 325.144531 159.167969 " fill-opacity="1" fill-rule="nonzero"/><path fill="#fab583" d="M 345.570312 288.421875 C 345.214844 288.332031 344.964844 288.132812 344.835938 287.789062 C 345.082031 287.996094 345.324219 288.207031 345.570312 288.421875 " fill-opacity="1" fill-rule="nonzero"/><path fill="#f9b382" d="M 566.113281 734.808594 C 563.996094 736.703125 561.6875 736.082031 559.566406 736.003906 C 557.988281 735.941406 556.402344 735.480469 554.945312 734.777344 C 553.507812 734.085938 552.203125 733.445312 551.578125 731.644531 C 550.820312 729.449219 548.773438 728.003906 547.257812 726.304688 C 542.847656 721.371094 538.46875 716.417969 534.28125 711.292969 C 532.441406 709.039062 530.632812 706.765625 528.828125 704.488281 C 528.523438 704.097656 528.261719 703.65625 528.414062 702.945312 C 530.449219 703.140625 532.523438 703.222656 534.550781 703.574219 C 537.75 704.125 540.921875 704.277344 544.097656 703.546875 C 545.316406 703.265625 545.882812 703.789062 546.488281 704.761719 C 548.347656 707.742188 549.925781 710.875 551.785156 713.867188 C 555.285156 719.503906 559.21875 724.800781 563.292969 730.015625 C 564.394531 731.425781 565.539062 732.835938 566.113281 734.808594 " fill-opacity="1" fill-rule="nonzero"/><path fill="#f9b382" d="M 549.84375 701.808594 C 551.992188 700.429688 554.605469 699.691406 557.074219 698.65625 C 558.160156 698.199219 558.730469 699.058594 559.199219 699.859375 C 560.414062 701.941406 561.648438 704.011719 562.785156 706.132812 C 566.546875 713.132812 571.105469 719.628906 575.40625 726.292969 C 577.65625 729.78125 577.394531 730.246094 573.253906 731.414062 C 570.554688 732.179688 568.890625 731.628906 567.152344 729.246094 C 562.664062 723.078125 558.066406 716.992188 554.035156 710.511719 C 552.65625 708.296875 551.429688 705.992188 550.132812 703.726562 C 549.828125 703.191406 549.5625 702.65625 549.84375 701.808594 " fill-opacity="1" fill-rule="nonzero"/><path fill="#fab583" d="M 460.625 189.582031 C 460.386719 189.378906 460.21875 189.113281 460.4375 188.851562 C 460.671875 188.574219 460.949219 188.765625 461.179688 188.941406 C 460.992188 189.152344 460.808594 189.367188 460.625 189.582031 " fill-opacity="1" fill-rule="nonzero"/><path fill="#12110f" d="M 289.179688 72.796875 C 289.15625 82.019531 285.628906 89.90625 279.902344 96.945312 C 277.527344 99.863281 274.824219 102.46875 272.054688 104.984375 C 267.15625 109.433594 265.308594 114.871094 266.285156 121.351562 C 266.417969 122.21875 266.484375 123.105469 266.480469 123.988281 C 266.464844 127.0625 264.863281 129.242188 262.414062 129.589844 C 259.820312 129.960938 257.449219 128.210938 256.847656 125.078125 C 256.390625 122.714844 256.199219 120.261719 256.21875 117.851562 C 256.261719 111.355469 258.167969 105.480469 262.710938 100.664062 C 264.675781 98.582031 266.71875 96.570312 268.75 94.550781 C 271.5 91.828125 274.003906 88.917969 275.894531 85.511719 C 281.351562 75.664062 280.089844 64.261719 273.21875 56.257812 C 267.128906 49.164062 254.136719 50.15625 249.734375 56.386719 C 248.65625 57.910156 247.40625 59.324219 246.136719 60.699219 C 244.242188 62.757812 241.851562 63.039062 239.957031 61.554688 C 238.175781 60.152344 237.792969 57.855469 239.152344 55.621094 C 244.699219 46.484375 252.425781 41.074219 263.542969 41.53125 C 269.292969 41.761719 274.242188 43.890625 278.46875 47.734375 C 285.382812 54.023438 289.183594 62.957031 289.179688 72.796875 " fill-opacity="1" fill-rule="nonzero"/><path fill="#131211" d="M 234.765625 134.742188 C 234.667969 139.867188 233.308594 144.734375 231.730469 149.5625 C 230.636719 152.90625 229.347656 156.183594 228.636719 159.660156 C 227.695312 164.269531 228.605469 168.414062 231.324219 172.183594 C 232.480469 173.789062 233.800781 175.28125 234.992188 176.867188 C 236.453125 178.816406 236.441406 180.605469 235.039062 181.898438 C 233.683594 183.148438 231.644531 183.046875 230.019531 181.398438 C 222.960938 174.246094 219.460938 165.992188 222.476562 155.871094 C 223.515625 152.390625 224.808594 148.988281 225.839844 145.503906 C 227.277344 140.640625 228.691406 135.757812 227.511719 130.582031 C 226.515625 126.203125 224.203125 122.683594 220.652344 119.992188 C 217.953125 117.945312 214.847656 117.339844 211.558594 117.949219 C 205.449219 119.078125 200.828125 121.894531 199.785156 128.644531 C 199.636719 129.613281 199.335938 130.601562 198.902344 131.472656 C 198.183594 132.914062 196.71875 133.464844 195.285156 132.988281 C 193.8125 132.5 193.058594 131.285156 193.28125 129.921875 C 194.304688 123.726562 195.839844 117.777344 202.015625 114.4375 C 209 110.652344 216.105469 109.175781 223.335938 113.605469 C 228.957031 117.042969 232.414062 122.179688 234.089844 128.511719 C 234.625 130.542969 234.863281 132.625 234.765625 134.742188 " fill-opacity="1" fill-rule="nonzero"/><path fill="#161413" d="M 267.332031 143.613281 C 267.378906 146.035156 265.402344 148.054688 263.023438 148.007812 C 260.800781 147.96875 258.832031 146.019531 258.773438 143.804688 C 258.710938 141.457031 260.757812 139.429688 263.160156 139.460938 C 265.492188 139.492188 267.285156 141.273438 267.332031 143.613281 " fill-opacity="1" fill-rule="nonzero"/><path fill="#181615" d="M 237.644531 195.261719 C 235.527344 195.246094 233.625 193.46875 233.726562 191.605469 C 233.8125 190.007812 235.1875 188.761719 236.824219 188.792969 C 238.871094 188.835938 240.835938 190.703125 240.742188 192.507812 C 240.660156 194.132812 239.378906 195.273438 237.644531 195.261719 " fill-opacity="1" fill-rule="nonzero"/></svg>